<?xml version="1.0" encoding="UTF-8"?>
<svg xmlns="http://www.w3.org/2000/svg" width="1024" height="1024" viewBox="240 240 520 520">
<path d="M0 0 C3.32107489 -0.00248767 6.64214555 -0.00644347 9.96321869 -0.01062775 C70.98924853 -0.07664151 70.98924853 -0.07664151 91.41347504 2.87248993 C92.66563812 3.04804413 93.91780121 3.22359833 95.20790863 3.40447235 C119.16468319 6.9112776 141.24464354 14.08850903 163.17446136 24.24822235 C165.05243662 25.1004628 166.94619961 25.89872765 168.85097504 26.68889618 C171.58281637 27.89392715 173.85217296 29.11284537 176.28847504 30.80998993 C178.80719616 32.54454069 181.32434067 34.26816317 183.88613129 35.93889618 C204.06015125 49.09586572 222.23566608 65.13187992 237.10097504 84.12248993 C237.53458344 84.67436981 237.96819183 85.22624969 238.41493988 85.79485321 C246.10039835 95.6587359 252.38817164 106.00791624 258.10097504 117.12248993 C258.45788422 117.81568329 258.8147934 118.50887665 259.18251801 119.22307587 C273.58072541 147.58666527 281.33430885 178.50421894 284.10097504 210.12248993 C284.19451263 211.19128387 284.28805023 212.26007782 284.3844223 213.36125946 C285.0912571 222.24091079 285.30252644 231.0942376 285.28847504 239.99748993 C285.28787079 240.71315125 285.28726654 241.42881256 285.28664398 242.16616058 C285.19726549 281.49324117 278.05389926 319.39526907 263.28847504 355.87248993 C262.99859711 356.5939621 262.70871918 357.31543427 262.41005707 358.05876923 C260.3485661 362.9986944 260.3485661 362.9986944 258.10097504 364.12248993 C257.68138519 365.39286102 257.68138519 365.39286102 257.25331879 366.68889618 C255.86301423 370.83153246 253.89033124 374.31693062 251.66347504 378.05998993 C251.22245453 378.80289276 250.78143402 379.54579559 250.32704926 380.31121063 C237.93073187 400.84001873 222.04665984 419.40575263 203.10097504 434.12248993 C202.26952972 434.76855194 202.26952972 434.76855194 201.42128754 435.42766571 C171.38632886 458.57961302 136.44626943 472.88356967 99.10097504 479.12248993 C98.21055511 479.27943329 97.32013519 479.43637665 96.40273285 479.59807587 C78.43228843 482.65561581 60.25398324 482.60867278 42.07558441 482.83245087 C41.03868973 482.84615723 40.00179504 482.85986359 38.93347931 482.87398529 C36.95816144 482.89858895 34.98277855 482.91852112 33.00736237 482.93325043 C32.12632339 482.94365356 31.24528442 482.9540567 30.3375473 482.96477509 C29.5646788 482.97127075 28.7918103 482.97776642 27.99552155 482.98445892 C26.01245313 483.00798491 26.01245313 483.00798491 24.10097504 484.12248993 C24.10097504 483.46248993 24.10097504 482.80248993 24.10097504 482.12248993 C17.90781125 482.24077008 11.7148069 482.36502103 5.52187347 482.49480438 C3.41513577 482.53811351 1.30836387 482.57979146 -0.79843903 482.61980438 C-3.82686415 482.6776042 -6.85511781 482.74127089 -9.88339996 482.80608368 C-11.29610168 482.83115242 -11.29610168 482.83115242 -12.73734283 482.8567276 C-13.6179538 482.87667282 -14.49856476 482.89661804 -15.4058609 482.91716766 C-16.17863373 482.93271194 -16.95140656 482.94825623 -17.74759674 482.96427155 C-19.90154245 483.12267507 -21.82465934 483.53467199 -23.89902496 484.12248993 C-23.89902496 483.46248993 -23.89902496 482.80248993 -23.89902496 482.12248993 C-28.48259872 482.26131847 -33.06581193 482.40975741 -37.64902496 482.55998993 C-39.60195465 482.61896454 -39.60195465 482.61896454 -41.59433746 482.67913055 C-42.84472809 482.72102509 -44.09511871 482.76291962 -45.38339996 482.80608368 C-46.53549957 482.84274139 -47.68759918 482.87939911 -48.8746109 482.91716766 C-51.79192263 483.02020182 -51.79192263 483.02020182 -54.11875153 483.70476532 C-55.89902496 484.12248993 -55.89902496 484.12248993 -58.89902496 483.12248993 C-60.73117852 483.05350824 -62.56570739 483.0378127 -64.39902496 483.05998993 C-65.83761871 483.07352509 -65.83761871 483.07352509 -67.30527496 483.08733368 C-68.16121246 483.09893524 -69.01714996 483.1105368 -69.89902496 483.12248993 C-72.83411289 483.12248993 -75.76868225 483.10526619 -78.70371246 483.08733368 C-81.06048249 483.07801312 -83.41725338 483.06890744 -85.77402496 483.05998993 C-86.9586734 483.05161102 -88.14332184 483.04323212 -89.36386871 483.0345993 C-90.50726715 483.03137665 -91.65066559 483.02815399 -92.82871246 483.02483368 C-94.3946817 483.01697845 -94.3946817 483.01697845 -95.99228668 483.00896454 C-98.84438348 483.02884596 -98.84438348 483.02884596 -101.34091949 483.69109344 C-104.70817918 484.25894493 -107.51291121 483.6189242 -110.89902496 483.12248993 C-114.91979307 482.94098474 -118.94106057 482.91443447 -122.96543121 482.87639618 C-125.33066954 482.84347545 -127.69590382 482.81026352 -130.06113434 482.7767868 C-133.76968532 482.72930751 -137.47821789 482.6848138 -141.18686676 482.64568329 C-144.7798855 482.60594856 -148.3725876 482.55443062 -151.96543121 482.50139618 C-153.07181442 482.49298203 -154.17819763 482.48456787 -155.3181076 482.47589874 C-160.62500377 482.39081891 -164.88899541 482.04681426 -169.89902496 480.12248993 C-170.55902496 480.45248993 -171.21902496 480.78248993 -171.89902496 481.12248993 C-171.89902496 479.80248993 -171.89902496 478.48248993 -171.89902496 477.12248993 C-172.47652496 476.85436493 -173.05402496 476.58623993 -173.64902496 476.30998993 C-179.5229748 473.20984974 -179.5229748 473.20984974 -180.93436432 469.12877655 C-183.13216904 457.18317745 -183.30306974 445.51028805 -183.22714996 433.38811493 C-183.22408165 431.21687197 -183.2222137 429.04562702 -183.22147369 426.87438202 C-183.21690034 422.34600406 -183.20259578 417.81780686 -183.18027496 413.28948212 C-183.15206404 407.54338362 -183.1410655 401.79742691 -183.13659286 396.05126572 C-183.13138497 390.49686464 -183.11689659 384.94249736 -183.10214996 379.38811493 C-183.10026924 378.35835793 -183.09838852 377.32860092 -183.09645081 376.26763916 C-183.06481094 362.85660566 -182.69547069 349.51045076 -181.89902496 336.12248993 C-182.55902496 335.79248993 -183.21902496 335.46248993 -183.89902496 335.12248993 C-183.56902496 334.46248993 -183.23902496 333.80248993 -182.89902496 333.12248993 C-182.805933 331.45798538 -182.77710717 329.78972358 -182.77877045 328.12261868 C-182.7773961 327.05826782 -182.77602175 325.99391697 -182.77460575 324.89731306 C-182.77820071 323.71864764 -182.78179567 322.53998222 -182.78549957 321.32559967 C-182.78527628 319.458211 -182.78527628 319.458211 -182.78504848 317.55309731 C-182.78562482 314.08608721 -182.79070309 310.61913513 -182.79761839 307.15213525 C-182.80397468 303.41713232 -182.80456017 299.68212818 -182.80579376 295.94712067 C-182.80868519 289.47012981 -182.81513256 282.99315029 -182.82386017 276.51616478 C-182.83639889 267.14165232 -182.84248758 257.76714408 -182.84679353 248.39262462 C-182.85386753 233.17131011 -182.8646733 217.9500009 -182.87851715 202.7286911 C-182.87975887 201.36123662 -182.87975887 201.36123662 -182.88102567 199.96615679 C-182.88776738 192.57278387 -182.89468934 185.17941113 -182.90162849 177.7860384 C-182.90767869 171.33365448 -182.91366001 164.8812705 -182.91953278 158.42888641 C-182.9203609 157.52047984 -182.92118903 156.61207327 -182.92204225 155.67613923 C-182.9357356 140.5214377 -182.94549149 125.36673608 -182.95244312 110.21202999 C-182.95692202 100.86395433 -182.96495744 91.51589452 -182.97758794 82.16782624 C-182.98602411 75.75755795 -182.99090684 69.3472933 -182.99301314 62.93701982 C-182.99435613 59.23977037 -182.99735135 55.54254143 -183.00477219 51.84529877 C-183.01279476 47.83294493 -183.01302595 43.8206275 -183.01255035 39.80826569 C-183.01614532 38.64521532 -183.01974028 37.48216495 -183.02344418 36.28387064 C-182.99724302 15.64465363 -182.99724302 15.64465363 -176.06699371 8.13811493 C-169.45170683 2.0161286 -163.55907548 0.82613331 -154.77060699 0.80364227 C-153.40735731 0.78858233 -153.40735731 0.78858233 -152.01656723 0.77321815 C-148.97999659 0.74219264 -145.94351768 0.72522905 -142.90683746 0.70842743 C-140.73256528 0.6895232 -138.55829965 0.66985128 -136.38404083 0.64946747 C-130.49222625 0.59708428 -124.60039032 0.5576184 -118.70845795 0.52119446 C-115.02525071 0.49749782 -111.3420862 0.47031884 -107.65891266 0.4418869 C-71.77314212 0.16507969 -35.886816 0.02322866 0 0 Z " fill="#010100" transform="translate(459.8990249633789,259.8775100708008)"/>
<path d="M0 0 C36.3 0 72.6 0 110 0 C114.21332235 5.26665294 114.49967184 5.89958999 114.49219131 12.15891743 C114.49680669 12.87211522 114.50142207 13.58531302 114.50617731 14.32012287 C114.51678821 16.71650087 114.49880301 19.11180969 114.48101807 21.50813293 C114.482762 23.24074213 114.48626365 24.97335029 114.49137473 26.70595282 C114.50033342 31.4720502 114.4842988 36.23778911 114.46426249 41.0038408 C114.44701475 46.14149689 114.45283229 51.27913219 114.45587158 56.41680908 C114.45797064 65.31983556 114.44540335 74.22274493 114.42292023 83.12574196 C114.39043444 95.99801735 114.37999671 108.87023601 114.37496826 121.74254795 C114.36621024 142.6261676 114.33958088 163.50972481 114.30175781 184.39331055 C114.26505086 204.68171882 114.23673265 224.97011015 114.21972656 245.25854492 C114.21815022 247.13390122 114.21815022 247.13390122 114.21654204 249.0471435 C114.21132195 255.31911607 114.2062671 261.59108877 114.20129442 267.86306155 C114.15981659 319.90876315 114.08607019 371.95434929 114 424 C76.38 424 38.76 424 0 424 C0 284.08 0 144.16 0 0 Z " fill="#FECC30" transform="translate(306,290)"/>
<path d="M0 0 C14.540625 -0.061875 29.08125 -0.12375 44.0625 -0.1875 C48.60394775 -0.21481201 53.14539551 -0.24212402 57.82446289 -0.27026367 C63.49694824 -0.28381348 63.49694824 -0.28381348 66.17698669 -0.28633118 C67.99516523 -0.29085 69.81333652 -0.30121021 71.63145447 -0.31672668 C114.88428131 -0.66645345 157.972392 10.29408044 192 38 C192.56364258 38.4522998 193.12728516 38.90459961 193.70800781 39.37060547 C205.37509976 48.77707313 215.8291186 59.11003271 225 71 C225.75539063 71.94230469 226.51078125 72.88460937 227.2890625 73.85546875 C247.92595728 100.91198389 259.41725003 134.38254624 264.484375 167.72265625 C264.58459961 168.38015869 264.68482422 169.03766113 264.78808594 169.71508789 C265.07397667 172.79763552 265 175.9042233 265 179 C177.55 179 90.1 179 0 179 C0 119.93 0 60.86 0 0 Z " fill="#FECD30" transform="translate(448,290)"/>
<path d="M0 0 C41.91 0 83.82 0 127 0 C127 28.128642 127 28.128642 125.875 37.3125 C125.67813599 38.97297363 125.67813599 38.97297363 125.47729492 40.66699219 C118.60193297 94.5005827 94.44413631 145.2864344 51 179 C50.03191406 179.76957031 49.06382812 180.53914062 48.06640625 181.33203125 C36.43590986 190.27758611 15.04144851 206 0 206 C0 138.02 0 70.04 0 0 Z " fill="#FECC30" transform="translate(587,495)"/>
<path d="M0 0 C0.976203 -0.00554901 1.95240601 -0.01109802 2.95819092 -0.01681519 C6.18169406 -0.02861541 9.40379263 -0.00432974 12.62719727 0.02148438 C14.87012162 0.02319557 17.11304798 0.02312971 19.35597229 0.0213623 C24.05603172 0.02301582 28.75561436 0.04171905 33.45556641 0.07324219 C39.47591135 0.11289655 45.49563107 0.11729014 51.51608181 0.10977936 C56.14782931 0.10670738 60.77943664 0.11883877 65.41114998 0.13591003 C67.63067813 0.14293479 69.85022217 0.1460652 72.06976128 0.1452179 C75.17440273 0.14701867 78.27829998 0.16842599 81.3828125 0.1953125 C82.29781021 0.1923819 83.21280792 0.18945129 84.15553284 0.18643188 C89.25045925 0.25439479 92.86008358 0.74122488 97.25610352 3.61523438 C98.96955335 7.04213405 98.38467625 10.97635002 98.36962891 14.74658203 C98.36974944 15.70830511 98.36986998 16.67002819 98.36999416 17.66089439 C98.3692459 20.78371849 98.36162156 23.90648341 98.35375977 27.02929688 C98.35229008 28.95336885 98.35126953 30.87744122 98.35070801 32.80151367 C98.34545821 39.94775999 98.33149709 47.09399776 98.31860352 54.24023438 C98.29797852 70.20398438 98.27735352 86.16773438 98.25610352 102.61523438 C60.96610352 102.61523438 23.67610352 102.61523438 -14.74389648 102.61523438 C-14.84702148 86.71335937 -14.95014648 70.81148437 -15.05639648 54.42773438 C-15.1019165 49.40917236 -15.14743652 44.39061035 -15.19433594 39.2199707 C-15.21691895 33.08532715 -15.21691895 33.08532715 -15.22111511 30.21220398 C-15.22878639 28.20820058 -15.24635843 26.20422007 -15.27177429 24.20036316 C-15.3083777 21.16222123 -15.31342672 18.12548761 -15.31152344 15.0871582 C-15.32951398 14.19641759 -15.34750452 13.30567698 -15.36604023 12.38794422 C-15.33141385 8.25865573 -15.06248082 6.12020168 -12.81741333 2.56169128 C-8.49137768 -0.17798525 -5.02699433 -0.07270737 0 0 Z " fill="#FECB30" transform="translate(462.743896484375,494.384765625)"/>
<path d="M0 0 C37.29 0 74.58 0 113 0 C113 29.37 113 58.74 113 89 C86.05504144 94.13237306 61.86811689 95.26304609 34.75 95.125 C23.2825 95.08375 11.815 95.0425 0 95 C0 63.65 0 32.3 0 0 Z " fill="#FDCD31" transform="translate(448,619)"/>
<path d="M0 0 C3.875 1.75 3.875 1.75 5 4 C5.09353777 7.05143685 5.12570429 10.07982584 5.11352539 13.13134766 C5.11364593 14.09307074 5.11376646 15.05479382 5.11389065 16.04566002 C5.11314238 19.16848412 5.10551804 22.29124903 5.09765625 25.4140625 C5.09618656 27.33813447 5.09516602 29.26220684 5.09460449 31.1862793 C5.0893547 38.33252562 5.07539358 45.47876338 5.0625 52.625 C5.041875 68.58875 5.02125 84.5525 5 101 C-32.29 101 -69.58 101 -108 101 C-108.061875 85.056875 -108.12375 69.11375 -108.1875 52.6875 C-108.21481201 47.65072998 -108.24212402 42.61395996 -108.27026367 37.42456055 C-108.28381348 31.28088379 -108.28381348 31.28088379 -108.28633118 28.40608215 C-108.29094232 26.39536042 -108.30150256 24.38464705 -108.31672668 22.37397766 C-108.33861966 19.33079584 -108.34172028 16.28812157 -108.34057617 13.24487305 C-108.3513705 12.34693622 -108.36216482 11.44899939 -108.37328625 10.52385235 C-108.36708751 9.29595848 -108.36708751 9.29595848 -108.36076355 8.04325867 C-108.36352893 7.33071269 -108.36629431 6.61816671 -108.36914349 5.88402843 C-107.89553385 3.46682737 -106.85000806 2.56181577 -105 1 C-105.16173675 1.57647655 -105.32347349 2.15295311 -105.49011135 2.74689865 C-105.98403971 4.92947452 -106.13733024 6.81757376 -106.15821838 9.04962158 C-106.16799241 9.8444054 -106.17776644 10.63918922 -106.18783665 11.4580574 C-106.1936069 12.32429104 -106.19937716 13.19052467 -106.20532227 14.08300781 C-106.21535499 15.0152354 -106.22538771 15.947463 -106.23572445 16.90793991 C-106.26708517 19.9229764 -106.29187068 22.93802605 -106.31640625 25.953125 C-106.33481193 27.81559679 -106.35364873 29.67806436 -106.3729248 31.54052734 C-106.44134393 38.44363506 -106.50141499 45.34682348 -106.5625 52.25 C-106.706875 67.6775 -106.85125 83.105 -107 99 C-70.7 99 -34.4 99 3 99 C2.505 51.48 2.505 51.48 2 3 C1.01 2.505 1.01 2.505 0 2 C0 1.34 0 0.68 0 0 Z " fill="#FCF342" transform="translate(556,496)"/>
<path d="M0 0 C2 1 2 1 3.1875 3.8125 C4 7 4 7 3 11 C2.34 8.36 1.68 5.72 1 3 C0.34 3 -0.32 3 -1 3 C-0.67 2.01 -0.34 1.02 0 0 Z " fill="#F5E63F" transform="translate(700,414)"/>
<path d="M0 0 C1.98 0 3.96 0 6 0 C6 0.33 6 0.66 6 1 C4.02 1 2.04 1 0 1 C0 0.67 0 0.34 0 0 Z " fill="#1C1C1D" transform="translate(522,743)"/>
<path d="M0 0 C1.65 0 3.3 0 5 0 C5 0.33 5 0.66 5 1 C3.35 1 1.7 1 0 1 C0 0.67 0 0.34 0 0 Z " fill="#1E1D1D" transform="translate(516,743)"/>
<path d="M0 0 C4 1 4 1 4 1 Z " fill="#202020" transform="translate(596,272)"/>
<path d="" fill="#222121" transform="translate(0,0)"/>
<path d="" fill="#1F201F" transform="translate(0,0)"/>
<path d="M0 0 C0.66 0.66 1.32 1.32 2 2 C1.34 2 0.68 2 0 2 C0 1.34 0 0.68 0 0 Z " fill="#242322" transform="translate(582,266)"/>
<path d="M0 0 C2 1 2 1 2 1 Z " fill="#201F1F" transform="translate(532,743)"/>
<path d="M0 0 C2 1 2 1 2 1 Z " fill="#212121" transform="translate(445,743)"/>
<path d="M0 0 C2 1 2 1 2 1 Z " fill="#1E1D1F" transform="translate(340,743)"/>
<path d="M0 0 C2 1 2 1 2 1 Z " fill="#21201F" transform="translate(333,743)"/>
<path d="M0 0 C2 1 2 1 2 1 Z " fill="#22201E" transform="translate(580,735)"/>
<path d="" fill="#212221" transform="translate(0,0)"/>
<path d="" fill="#20201E" transform="translate(0,0)"/>
<path d="" fill="#201E1E" transform="translate(0,0)"/>
<path d="" fill="#222221" transform="translate(0,0)"/>
<path d="" fill="#222322" transform="translate(0,0)"/>
<path d="M0 0 C2 1 2 1 2 1 Z " fill="#252523" transform="translate(577,266)"/>
<path d="M0 0 C2 1 2 1 2 1 Z " fill="#262625" transform="translate(281,266)"/>
<path d="M0 0 C2 1 2 1 2 1 Z " fill="#222322" transform="translate(568,264)"/>
<path d="M0 0 C2 1 2 1 2 1 Z " fill="#282827" transform="translate(280,264)"/>
<path d="" fill="#2C2C2B" transform="translate(0,0)"/>
<path d="" fill="#2B2C2A" transform="translate(0,0)"/>
<path d="" fill="#323131" transform="translate(0,0)"/>
<path d="" fill="#343432" transform="translate(0,0)"/>
<path d="" fill="#383936" transform="translate(0,0)"/>
<path d="" fill="#333433" transform="translate(0,0)"/>
<path d="" fill="#3E3C3C" transform="translate(0,0)"/>
<path d="" fill="#1E1E1D" transform="translate(0,0)"/>
<path d="" fill="#1D1E1C" transform="translate(0,0)"/>
<path d="" fill="#201E21" transform="translate(0,0)"/>
<path d="" fill="#212021" transform="translate(0,0)"/>
<path d="" fill="#1F1F1F" transform="translate(0,0)"/>
<path d="" fill="#212120" transform="translate(0,0)"/>
<path d="" fill="#201F21" transform="translate(0,0)"/>
<path d="" fill="#222221" transform="translate(0,0)"/>
<path d="" fill="#221F1F" transform="translate(0,0)"/>
<path d="" fill="#1F1F1F" transform="translate(0,0)"/>
<path d="" fill="#212120" transform="translate(0,0)"/>
<path d="" fill="#201F20" transform="translate(0,0)"/>
<path d="" fill="#211E1E" transform="translate(0,0)"/>
<path d="" fill="#212020" transform="translate(0,0)"/>
<path d="" fill="#262222" transform="translate(0,0)"/>
<path d="" fill="#202120" transform="translate(0,0)"/>
<path d="" fill="#23201F" transform="translate(0,0)"/>
<path d="" fill="#242323" transform="translate(0,0)"/>
<path d="" fill="#22211E" transform="translate(0,0)"/>
<path d="" fill="#232220" transform="translate(0,0)"/>
<path d="" fill="#222220" transform="translate(0,0)"/>
<path d="" fill="#232422" transform="translate(0,0)"/>
<path d="" fill="#232121" transform="translate(0,0)"/>
<path d="" fill="#22201E" transform="translate(0,0)"/>
<path d="" fill="#232120" transform="translate(0,0)"/>
<path d="" fill="#222221" transform="translate(0,0)"/>
<path d="" fill="#262322" transform="translate(0,0)"/>
<path d="" fill="#222420" transform="translate(0,0)"/>
<path d="" fill="#222121" transform="translate(0,0)"/>
<path d="" fill="#252022" transform="translate(0,0)"/>
<path d="" fill="#21221F" transform="translate(0,0)"/>
<path d="" fill="#232322" transform="translate(0,0)"/>
<path d="" fill="#232120" transform="translate(0,0)"/>
<path d="" fill="#222021" transform="translate(0,0)"/>
<path d="" fill="#222220" transform="translate(0,0)"/>
<path d="" fill="#212221" transform="translate(0,0)"/>
<path d="" fill="#1F211F" transform="translate(0,0)"/>
<path d="" fill="#202120" transform="translate(0,0)"/>
<path d="" fill="#212120" transform="translate(0,0)"/>
<path d="" fill="#3A3A39" transform="translate(0,0)"/>
<path d="" fill="#212021" transform="translate(0,0)"/>
<path d="" fill="#3C3C3C" transform="translate(0,0)"/>
<path d="" fill="#22201E" transform="translate(0,0)"/>
<path d="" fill="#232120" transform="translate(0,0)"/>
<path d="" fill="#242523" transform="translate(0,0)"/>
<path d="" fill="#212120" transform="translate(0,0)"/>
<path d="" fill="#232220" transform="translate(0,0)"/>
<path d="" fill="#1F1F1F" transform="translate(0,0)"/>
<path d="" fill="#252122" transform="translate(0,0)"/>
<path d="" fill="#23201E" transform="translate(0,0)"/>
<path d="" fill="#1F1F1F" transform="translate(0,0)"/>
<path d="" fill="#201F22" transform="translate(0,0)"/>
<path d="" fill="#212321" transform="translate(0,0)"/>
<path d="" fill="#21211E" transform="translate(0,0)"/>
<path d="" fill="#212220" transform="translate(0,0)"/>
<path d="" fill="#232322" transform="translate(0,0)"/>
<path d="" fill="#22201F" transform="translate(0,0)"/>
<path d="" fill="#202020" transform="translate(0,0)"/>
<path d="" fill="#1F1F1E" transform="translate(0,0)"/>
<path d="" fill="#20231F" transform="translate(0,0)"/>
<path d="" fill="#211F20" transform="translate(0,0)"/>
<path d="" fill="#202320" transform="translate(0,0)"/>
<path d="" fill="#21201F" transform="translate(0,0)"/>
<path d="" fill="#21211F" transform="translate(0,0)"/>
<path d="" fill="#21201F" transform="translate(0,0)"/>
<path d="" fill="#201F1F" transform="translate(0,0)"/>
<path d="" fill="#20201D" transform="translate(0,0)"/>
<path d="" fill="#211F22" transform="translate(0,0)"/>
<path d="" fill="#3A3939" transform="translate(0,0)"/>
<path d="" fill="#212120" transform="translate(0,0)"/>
<path d="" fill="#222020" transform="translate(0,0)"/>
<path d="" fill="#20201F" transform="translate(0,0)"/>
<path d="" fill="#1F2120" transform="translate(0,0)"/>
<path d="" fill="#3C3C3C" transform="translate(0,0)"/>
<path d="" fill="#22221F" transform="translate(0,0)"/>
<path d="" fill="#212120" transform="translate(0,0)"/>
<path d="" fill="#232220" transform="translate(0,0)"/>
<path d="" fill="#222320" transform="translate(0,0)"/>
<path d="" fill="#222122" transform="translate(0,0)"/>
<path d="" fill="#202120" transform="translate(0,0)"/>
<path d="" fill="#1E1F20" transform="translate(0,0)"/>
<path d="" fill="#201E1D" transform="translate(0,0)"/>
<path d="" fill="#232120" transform="translate(0,0)"/>
<path d="" fill="#373839" transform="translate(0,0)"/>
<path d="" fill="#222222" transform="translate(0,0)"/>
<path d="" fill="#232321" transform="translate(0,0)"/>
<path d="" fill="#232321" transform="translate(0,0)"/>
<path d="" fill="#1E1F1E" transform="translate(0,0)"/>
<path d="" fill="#201F20" transform="translate(0,0)"/>
<path d="" fill="#22231D" transform="translate(0,0)"/>
<path d="" fill="#393A39" transform="translate(0,0)"/>
<path d="" fill="#3B3B3B" transform="translate(0,0)"/>
<path d="" fill="#212220" transform="translate(0,0)"/>
<path d="" fill="#212120" transform="translate(0,0)"/>
<path d="" fill="#202120" transform="translate(0,0)"/>
<path d="" fill="#201E1E" transform="translate(0,0)"/>
<path d="" fill="#21211F" transform="translate(0,0)"/>
<path d="" fill="#212221" transform="translate(0,0)"/>
<path d="" fill="#212222" transform="translate(0,0)"/>
<path d="" fill="#21221F" transform="translate(0,0)"/>
<path d="" fill="#201F20" transform="translate(0,0)"/>
<path d="" fill="#1E211D" transform="translate(0,0)"/>
<path d="" fill="#23221F" transform="translate(0,0)"/>
<path d="" fill="#201F1F" transform="translate(0,0)"/>
<path d="" fill="#211D20" transform="translate(0,0)"/>
<path d="" fill="#212222" transform="translate(0,0)"/>
<path d="" fill="#222421" transform="translate(0,0)"/>
<path d="" fill="#1E1E1D" transform="translate(0,0)"/>
<path d="" fill="#211F1F" transform="translate(0,0)"/>
<path d="" fill="#22211E" transform="translate(0,0)"/>
<path d="" fill="#232121" transform="translate(0,0)"/>
<path d="" fill="#222221" transform="translate(0,0)"/>
<path d="" fill="#202222" transform="translate(0,0)"/>
<path d="" fill="#24211E" transform="translate(0,0)"/>
<path d="" fill="#252321" transform="translate(0,0)"/>
<path d="" fill="#262427" transform="translate(0,0)"/>
<path d="" fill="#232422" transform="translate(0,0)"/>
<path d="" fill="#222322" transform="translate(0,0)"/>
<path d="" fill="#252827" transform="translate(0,0)"/>
<path d="" fill="#201F1E" transform="translate(0,0)"/>
<path d="" fill="#262625" transform="translate(0,0)"/>
<path d="" fill="#282525" transform="translate(0,0)"/>
<path d="" fill="#282824" transform="translate(0,0)"/>
<path d="" fill="#2A2928" transform="translate(0,0)"/>
<path d="" fill="#292A29" transform="translate(0,0)"/>
<path d="" fill="#292927" transform="translate(0,0)"/>
<path d="" fill="#2B2B28" transform="translate(0,0)"/>
<path d="" fill="#2A2A29" transform="translate(0,0)"/>
<path d="" fill="#2B2A29" transform="translate(0,0)"/>
<path d="" fill="#2C2B28" transform="translate(0,0)"/>
<path d="" fill="#2D2C2B" transform="translate(0,0)"/>
<path d="" fill="#292C28" transform="translate(0,0)"/>
<path d="" fill="#2C2A28" transform="translate(0,0)"/>
<path d="" fill="#2A2D2A" transform="translate(0,0)"/>
<path d="" fill="#2D2D2C" transform="translate(0,0)"/>
<path d="" fill="#2B2B2A" transform="translate(0,0)"/>
<path d="" fill="#2C2C2B" transform="translate(0,0)"/>
<path d="" fill="#252325" transform="translate(0,0)"/>
<path d="" fill="#282927" transform="translate(0,0)"/>
<path d="" fill="#3E3E3C" transform="translate(0,0)"/>
<path d="" fill="#3E3E3F" transform="translate(0,0)"/>
<path d="" fill="#3B3B3A" transform="translate(0,0)"/>
<path d="" fill="#3D3F3C" transform="translate(0,0)"/>
<path d="" fill="#3F3F3E" transform="translate(0,0)"/>
<path d="" fill="#3D3E3C" transform="translate(0,0)"/>
<path d="" fill="#3F3E3E" transform="translate(0,0)"/>
<path d="" fill="#41403F" transform="translate(0,0)"/>
</svg>
